<?xml version="1.0" encoding="UTF-8"?>
<svg xmlns="http://www.w3.org/2000/svg" width="670" height="690">
  <style>
    rect {
      fill: white;
    }

    rect[rx] {
      stroke: black;
      stroke-width: 2;
    }

    path[marker-end] {
      stroke: black;
      stroke-width: 2;
      fill: none;
    }

    text {
      font-family: Arial;
      font-size: 12px;
      text-anchor: middle;
    }

    tspan.constructor-param {
      font-weight: bold;
    }

    tspan.method-call {
      font-family: monospace;
    }

    tspan.capability {
      font-style: italic;
    }
  </style>
  <defs>
    <marker id="arrow" orient="auto" markerWidth="6" markerHeight="6" refX="5" refY="3">
      <path d="M0,0 V6 L5,3 Z" fill="black" />
    </marker>
  </defs>

  <ellipse cx="160" cy="40" rx="7" ry="7" fill="black" />
  <path d="M160,40 L230,40 Q240,40 240,50 L240,100" marker-end="url(#arrow)" />

  <!-- BOX: Waiting (started = false) -->
  <g transform="translate(180, 100)">
    <rect x="0" y="0" width="120" height="60" rx="7" />
    <text y="27">
      <tspan x="60">Waiting</tspan>
      <tspan x="60" dy="14">(started = false)</tspan>
    </text>
  </g>

  <!-- ARROW: .cancel(reason) -->
  <path d="M180,130 L70,130 Q60,130 60,140 L60,640 Q60,650 70,650 L180,650" marker-end="url(#arrow)" />
  <g transform="translate(60,188)">
    <rect x="-55" y="0" width="110" height="14" />
    <text y="10">
      <tspan class="method-call">.cancel(reason)</tspan>
    </text>
  </g>

  <!-- ARROW: start() fulfills -->
  <path d="M240,160 L240,230" marker-end="url(#arrow)" />
  <g transform="translate(240,188)">
    <rect x="-40" y="0" width="80" height="14" />
    <text y="10">
      <tspan class="constructor-param">start()</tspan>
      <tspan>fulfills</tspan>
    </text>
  </g>

  <!-- ARROW: start() rejects -->
  <path d="M300,112 L610,112 Q620,112 620,122 L620,640 Q620,650 610,650 L580,650" marker-end="url(#arrow)" />
  <g transform="translate(620,188)">
    <rect x="-40" y="0" width="80" height="14" />
    <text y="10">
      <tspan class="constructor-param">start()</tspan>
      <tspan>rejects</tspan>
    </text>
  </g>

  <!-- UNLABELED ARROW: error(e) -->
  <path d="M300,124 L510,124 Q520,124 520,134 L520,620" marker-end="url(#arrow)" />

  <!-- UNLABELED ARROW: close() -->
  <path d="M300,136 L410,136 Q420,136 420,146 L420,640 Q420,650 410,650 L300,650" marker-end="url(#arrow)" />

  <!-- UNLABELED ARROW: enqueue(chunk) -->
  <path d="M300,148 L330,148 Q340,148 340,158 L340,365 Q340,375 330,375 L300,375" marker-end="url(#arrow)" />

  <!-- BOX: Waiting (started = true) -->
  <g transform="translate(180, 230)">
    <rect x="0" y="0" width="120" height="60" rx="7" />
    <text y="27">
      <tspan x="60">Waiting</tspan>
      <tspan x="60" dy="14">(started = true)</tspan>
    </text>
  </g>

  <!-- UNLABELED ARROW: .cancel(reason) -->
  <path d="M180,245 L70,245 Q60,245 60,255 L60,640 Q60,650 70,650 L180,650" marker-end="url(#arrow)" />

  <!-- UNLABELED ARROW: error(e) -->
  <path d="M300,245 L510,245 Q520,245 520,255 L520,620" marker-end="url(#arrow)" />

  <!-- ARROW: close() -->
  <path d="M300,260 L410,260 Q420,260 420,275 L420,640 Q420,650 410,650 L300,650" marker-end="url(#arrow)" />
  <g transform="translate(420,448)">
    <rect x="-25" y="0" width="50" height="14" />
    <text y="10">
      <tspan class="capability">close()</tspan>
    </text>
  </g>

  <!-- ARROW: enqueue(chunk) -->
  <path d="M300,275 L330,275 Q340,275 340,285 L340,365 Q340,375 330,375 L300,375" marker-end="url(#arrow)" />
  <g transform="translate(340,320)">
    <rect x="-50" y="0" width="100" height="14" />
    <text y="10">
      <tspan class="capability">enqueue(chunk)</tspan>
    </text>
  </g>

  <!-- BOX: Readable (draining = false) -->
  <g transform="translate(180, 360)">
    <rect x="0" y="0" width="120" height="60" rx="7" />
    <text y="27">
      <tspan x="60">Readable</tspan>
      <tspan x="60" dy="14">(draining = false)</tspan>
    </text>
  </g>

  <!-- ARROW: .read() until queue empty -->
  <path d="M180,375 L150,375 Q140,375 140,365 L140,285 Q140,275 150,275 L180,275" marker-end="url(#arrow)" />
  <g transform="translate(140,320)">
    <rect x="-40" y="-10" width="80" height="30" />
    <text y="0">
      <tspan class="method-call">.read()</tspan>
      <tspan>until</tspan>
    </text>
    <text y="16">
      <tspan>queue empty</tspan>
    </text>
  </g>

  <!-- ARROW: error(e) -->
  <path d="M300,405 L510,405 Q520,405 520,415 L520,620" marker-end="url(#arrow)" />
  <g transform="translate(520,448)">
    <rect x="-25" y="0" width="50" height="14" />
    <text y="10">
      <tspan class="capability">error(e)</tspan>
    </text>
  </g>

  <!-- ARROW: close() -->
  <path d="M240,420 L240,490" marker-end="url(#arrow)" />
  <g transform="translate(240,448)">
    <rect x="-25" y="0" width="50" height="14" />
    <text y="10">
      <tspan class="capability">close()</tspan>
    </text>
  </g>

  <!-- UNLABELED ARROW: .cancel(reason) -->
  <path d="M180,405 L70,405 Q60,405 60,415 L60,640 Q60,650 70,650 L180,650" marker-end="url(#arrow)" />

  <!-- BOX: Readable (draining = true) -->
  <g transform="translate(180, 490)">
    <rect x="0" y="0" width="120" height="60" rx="7" />
    <text y="27">
      <tspan x="60">Readable</tspan>
      <tspan x="60" dy="14">(draining = true)</tspan>
    </text>
  </g>

  <!-- ARROW: .read() until queue empty -->
  <path d="M240,550 L240,620" marker-end="url(#arrow)" />
  <g transform="translate(240,575)">
    <rect x="-40" y="-10" width="80" height="30" />
    <text y="0">
      <tspan class="method-call">.read()</tspan>
      <tspan>until</tspan>
    </text>
    <text y="16">
      <tspan>queue empty</tspan>
    </text>
  </g>

  <!-- UNLABELED ARROW: .cancel(reason) -->
  <path d="M180,520 L70,520 Q60,520 60,530 L60,640 Q60,650 70,650 L180,650" marker-end="url(#arrow)" />

  <!-- UNLABELED ARROW: error(e) -->
  <path d="M300,520 L510,520 Q520,520 520,530 L520,620" marker-end="url(#arrow)" />

  <!-- BOX: Closed -->
  <g transform="translate(180, 620)">
    <rect x="0" y="0" width="120" height="60" rx="7" />
    <text y="34">
      <tspan x="60">Closed</tspan>
    </text>
  </g>

  <!-- BOX: Errored -->
  <g transform="translate(460, 620)">
    <rect x="0" y="0" width="120" height="60" rx="7" />
    <text y="34">
      <tspan x="60">Errored</tspan>
    </text>
  </g>
</svg>
